<?xml version="1.0" encoding="UTF-8" standalone="no"?>
<!DOCTYPE svg PUBLIC "-//W3C//DTD SVG 1.1//EN" "http://www.w3.org/Graphics/SVG/1.1/DTD/svg11.dtd">
<svg width="100%" height="100%" viewBox="0 0 238 181" version="1.1" xmlns="http://www.w3.org/2000/svg" xmlns:xlink="http://www.w3.org/1999/xlink" xml:space="preserve" xmlns:serif="http://www.serif.com/" style="fill-rule:evenodd;clip-rule:evenodd;stroke-linejoin:round;stroke-miterlimit:2;">
    <g transform="matrix(1,0,0,1,-28.7284,0.00195986)">
        <g transform="matrix(1,0,0,1,29,0)">
            <path d="M114.994,178.096L4.676,112.92C1.164,110.946 -1.847,107.711 1.576,105.589L112.286,41.8C113.946,40.77 116.467,40.095 118.159,41.08L233.945,108.27C237.457,110.308 238.087,115.987 234.588,118.044L129.532,177.994C125.05,180.593 119.512,180.631 114.994,178.096Z" style="fill:rgb(91,54,160);fill-rule:nonzero;"/>
            <path d="M114.994,175.088L4.676,109.91C1.164,107.935 -1.847,104.7 1.576,102.578L112.286,38.79C113.946,37.761 116.467,37.086 118.159,38.07L233.945,105.26C237.457,107.299 238.087,112.977 234.588,115.035L129.532,174.984C125.05,177.583 119.512,177.622 114.994,175.087L114.994,175.088Z" style="fill:rgb(104,98,230);fill-rule:nonzero;"/>
            <path d="M124.09,89.094L102.322,101.512C102.322,101.512 135.855,121.969 142.712,124.85L155.249,106.843" style="fill:url(#_Linear1);fill-rule:nonzero;"/>
            <path d="M116.57,148.67L94.796,136.277L73.022,148.695C73.022,148.695 84.362,155.615 95.202,161.969C102.084,157.101 108.973,152.181 116.57,148.669L116.57,148.67Z" style="fill:url(#_Linear2);fill-rule:nonzero;"/>
            <path d="M69.658,72.142L55.847,80.02C55.847,80.02 57.017,87.242 63.875,90.123L81.957,78.547" style="fill:url(#_Linear3);fill-rule:nonzero;"/>
            <ellipse cx="76.418" cy="74.155" rx="8.33" ry="5.865" style="fill:rgb(104,225,253);"/>
            <ellipse cx="76.412" cy="70.695" rx="6.24" ry="2.553" style="fill:rgb(151,76,38);"/>
            <path d="M76.187,66.438C76.187,65.287 76.148,64.135 76.058,62.984C76.032,62.684 76.004,62.386 75.974,62.09L75.91,61.505C75.91,61.332 75.82,60.862 75.82,60.907C75.781,60.671 75.74,60.437 75.698,60.207C75.018,56.299 73.499,52.584 71.247,49.319C70.399,51.335 69.977,53.505 70.005,55.692C70.005,56.335 70.056,56.978 70.108,57.582L70.108,57.962C70.361,59.454 70.749,60.92 71.266,62.342C71.635,63.379 72.084,64.385 72.61,65.351C73.178,66.439 73.794,67.501 74.456,68.534C74.971,69.344 75.46,70.064 75.956,70.753C76.11,69.319 76.18,67.878 76.186,66.438L76.187,66.438ZM72.913,53.492C72.946,53.344 72.946,53.19 72.913,53.042C73.071,53.205 73.228,53.372 73.383,53.544C73.228,53.5 73.067,53.482 72.906,53.492L72.913,53.492Z" style="fill:rgb(153,154,28);fill-rule:nonzero;"/>
            <path d="M78.329,67.325C78.972,66.355 79.539,65.395 80.085,64.348C80.226,64.082 80.364,63.816 80.497,63.55L80.76,63.016L81.011,62.463L81.288,61.82C82.83,58.162 83.56,54.213 83.43,50.245C81.622,51.483 80.089,53.081 78.927,54.939C78.594,55.475 78.282,56.024 77.994,56.586L77.866,56.823L77.833,56.926C77.711,57.216 77.589,57.506 77.473,57.801C77.046,58.922 76.701,60.071 76.438,61.241C76.187,62.313 76.022,63.404 75.942,64.502C75.828,65.723 75.773,66.948 75.775,68.174C75.775,69.132 75.775,70.007 75.833,70.849C76.688,69.711 77.55,68.541 78.329,67.325ZM82.574,54.663C82.675,54.55 82.75,54.416 82.793,54.27C82.84,54.493 82.881,54.708 82.915,54.914C82.815,54.814 82.7,54.729 82.575,54.663L82.574,54.663Z" style="fill:rgb(153,154,28);fill-rule:nonzero;"/>
            <path d="M78.284,70.193C78.931,69.872 79.574,69.525 80.214,69.152L80.696,68.856L81.011,68.656L81.32,68.438L81.68,68.174C83.691,66.698 85.359,64.805 86.569,62.624C85.196,62.712 83.856,63.082 82.632,63.711C82.278,63.891 81.937,64.091 81.596,64.296L81.449,64.386L81.397,64.431L80.921,64.785C80.328,65.252 79.769,65.762 79.249,66.309C78.768,66.807 78.327,67.343 77.929,67.91C77.483,68.541 77.054,69.185 76.643,69.84C76.335,70.354 76.058,70.836 75.813,71.306C76.643,70.959 77.473,70.598 78.283,70.193L78.284,70.193ZM84.664,64.727C84.755,64.699 84.839,64.651 84.909,64.586C84.862,64.723 84.811,64.858 84.755,64.991C84.738,64.901 84.708,64.815 84.665,64.734L84.665,64.727L84.664,64.727ZM76.187,66.438C76.187,65.287 76.148,64.135 76.058,62.984C76.032,62.684 76.004,62.386 75.974,62.09L75.91,61.505C75.91,61.332 75.82,60.862 75.82,60.907C75.781,60.671 75.74,60.437 75.698,60.207C75.018,56.299 73.499,52.584 71.247,49.319C70.399,51.335 69.977,53.505 70.005,55.692C70.005,56.335 70.056,56.978 70.108,57.582L70.108,57.962C70.361,59.454 70.749,60.92 71.266,62.342C71.635,63.379 72.084,64.385 72.61,65.351C73.178,66.439 73.794,67.501 74.456,68.534C74.971,69.344 75.46,70.064 75.956,70.753C76.11,69.319 76.18,67.878 76.186,66.438L76.187,66.438ZM72.913,53.492C72.946,53.344 72.946,53.19 72.913,53.042C73.071,53.205 73.228,53.372 73.383,53.544C73.228,53.5 73.067,53.482 72.906,53.492L72.913,53.492Z" style="fill:rgb(153,154,28);fill-rule:nonzero;"/>
            <path d="M78.329,67.325C78.972,66.355 79.539,65.395 80.085,64.348C80.226,64.082 80.364,63.816 80.497,63.55L80.76,63.016L81.011,62.463L81.288,61.82C82.83,58.162 83.56,54.213 83.43,50.245C81.622,51.483 80.089,53.081 78.927,54.939C78.594,55.475 78.282,56.024 77.994,56.586L77.866,56.823L77.833,56.926C77.711,57.216 77.589,57.506 77.473,57.801C77.046,58.922 76.701,60.071 76.438,61.241C76.187,62.313 76.022,63.404 75.942,64.502C75.828,65.723 75.773,66.948 75.775,68.174C75.775,69.132 75.775,70.007 75.833,70.849C76.688,69.711 77.55,68.541 78.329,67.325ZM82.574,54.663C82.675,54.55 82.75,54.416 82.793,54.27C82.84,54.493 82.881,54.708 82.915,54.914C82.815,54.814 82.7,54.729 82.575,54.663L82.574,54.663Z" style="fill:rgb(153,154,28);fill-rule:nonzero;"/>
            <path d="M78.284,70.193C78.931,69.872 79.574,69.525 80.214,69.152L80.696,68.856L81.011,68.656L81.32,68.438L81.68,68.174C83.691,66.698 85.359,64.805 86.569,62.624C85.196,62.712 83.856,63.082 82.632,63.711C82.278,63.891 81.937,64.091 81.596,64.296L81.449,64.386L81.397,64.431L80.921,64.785C80.328,65.252 79.769,65.762 79.249,66.309C78.768,66.807 78.327,67.343 77.929,67.91C77.483,68.541 77.054,69.185 76.643,69.84C76.335,70.354 76.058,70.836 75.813,71.306C76.643,70.959 77.473,70.598 78.283,70.193L78.284,70.193ZM84.664,64.727C84.755,64.699 84.839,64.651 84.909,64.586C84.862,64.723 84.811,64.858 84.755,64.991C84.738,64.901 84.708,64.815 84.665,64.734L84.665,64.727L84.664,64.727Z" style="fill:rgb(153,154,28);fill-rule:nonzero;"/>
            <path d="M132.735,84.245L120.687,90.033C119.728,90.494 119.116,91.468 119.116,92.531C119.116,93.517 119.642,94.431 120.494,94.927L149.048,111.583C150.323,112.328 151.98,111.931 152.779,110.689L159.719,99.898" style="fill:rgb(161,72,45);fill-rule:nonzero;"/>
            <path d="M198.264,56.328L102.194,0.984C101.537,0.606 100.791,0.407 100.033,0.407C97.656,0.407 95.699,2.363 95.697,4.74L95.697,62.315C95.697,63.602 96.383,64.791 97.497,65.435L199.917,124.541C200.27,124.745 200.672,124.853 201.08,124.853C202.354,124.853 203.403,123.804 203.403,122.53C203.403,122.529 203.403,122.529 203.403,122.528L203.403,65.19C203.4,61.533 201.435,58.146 198.263,56.328L198.264,56.328Z" style="fill:rgb(244,123,86);fill-rule:nonzero;"/>
            <path d="M102.2,5.338L195.369,58.926C197.391,60.09 198.642,62.253 198.643,64.586L198.643,107.743C198.641,109.036 197.576,110.099 196.283,110.099C195.872,110.099 195.469,109.992 195.112,109.788L100.096,55.306C99.373,54.891 98.926,54.119 98.926,53.286L98.926,7.235C98.926,7.235 98.926,7.234 98.926,7.234C98.926,6.035 99.913,5.048 101.112,5.048C101.494,5.048 101.869,5.148 102.2,5.338Z" style="fill:white;fill-rule:nonzero;"/>
            <g transform="matrix(0.981959,-0.189095,0.189095,0.981959,-13.4292,28.1795)">
                <ellipse cx="140.964" cy="84.467" rx="2.026" ry="2.315" style="fill:rgb(171,100,60);"/>
            </g>
            <path d="M127.242,63.891L170.539,89.898L191.928,77.467L153.712,55.229" style="fill:url(#_Linear4);fill-rule:nonzero;"/>
            <path d="M180.748,58.714L133.938,30.18C133.691,30.038 133.412,29.963 133.127,29.963C132.238,29.963 131.506,30.694 131.506,31.584C131.506,31.602 131.506,31.621 131.507,31.64L131.507,47.897C131.503,48.495 131.814,49.053 132.324,49.364L179.127,77.294C179.37,77.432 179.645,77.504 179.924,77.504C180.81,77.504 181.539,76.775 181.539,75.889C181.539,75.888 181.539,75.886 181.539,75.884L181.783,60.727C181.82,59.921 181.425,59.153 180.748,58.714Z" style="fill:rgb(226,172,0);fill-rule:nonzero;"/>
            <path d="M169.549,67.08C171.228,69.428 174.18,70.084 176.136,68.553C178.091,67.023 178.316,63.878 176.637,61.537C174.958,59.197 172.006,58.534 170.05,60.065C168.095,61.595 167.87,64.734 169.549,67.081L169.549,67.08Z" style="fill:white;fill-rule:nonzero;"/>
            <path d="M164.956,55.814L145.864,44.322C145.769,44.278 145.666,44.256 145.561,44.256C145.162,44.256 144.834,44.584 144.834,44.983C144.834,45.214 144.945,45.432 145.131,45.569L164.223,57.061C164.318,57.105 164.421,57.127 164.526,57.127C164.925,57.127 165.253,56.799 165.253,56.4C165.253,56.169 165.142,55.951 164.956,55.814ZM164.171,60.483L137.856,44.643C137.779,44.616 137.697,44.602 137.615,44.602C137.216,44.602 136.888,44.93 136.888,45.329C136.888,45.547 136.986,45.753 137.154,45.891L163.438,61.737C163.534,61.782 163.639,61.805 163.745,61.805C164.143,61.805 164.472,61.477 164.472,61.078C164.472,60.845 164.36,60.626 164.171,60.489L164.171,60.483Z" style="fill:rgb(242,242,242);fill-rule:nonzero;"/>
            <path d="M171.408,61.865L124.624,33.338C124.377,33.195 124.097,33.12 123.812,33.12C122.923,33.12 122.191,33.852 122.191,34.741C122.191,34.76 122.191,34.779 122.192,34.798L122.192,51.048C122.185,51.648 122.492,52.207 123.002,52.521L169.806,80.451C170.051,80.592 170.328,80.666 170.61,80.666C171.496,80.666 172.225,79.937 172.225,79.051C172.225,79.037 172.225,79.024 172.225,79.011L172.469,63.852C172.491,63.05 172.087,62.293 171.408,61.865Z" style="fill:rgb(244,123,86);fill-rule:nonzero;"/>
            <path d="M160.209,70.232C161.888,72.579 164.84,73.235 166.796,71.705C168.751,70.175 168.976,67.029 167.297,64.688C165.618,62.348 162.666,61.685 160.71,63.216C158.755,64.746 158.53,67.885 160.209,70.232Z" style="fill:white;fill-rule:nonzero;"/>
            <path d="M155.616,58.965L136.51,47.473C136.414,47.428 136.309,47.405 136.203,47.405C135.805,47.405 135.476,47.733 135.476,48.132C135.476,48.365 135.588,48.584 135.777,48.721L154.869,60.213C154.965,60.258 155.07,60.281 155.176,60.281C155.574,60.281 155.903,59.953 155.903,59.554C155.903,59.321 155.791,59.102 155.602,58.965L155.616,58.965ZM154.825,63.666L128.515,47.801C128.419,47.756 128.314,47.733 128.208,47.733C127.81,47.733 127.481,48.061 127.481,48.46C127.481,48.693 127.593,48.912 127.782,49.049L154.098,64.888C154.194,64.933 154.299,64.956 154.405,64.956C154.803,64.956 155.132,64.628 155.132,64.229C155.132,63.996 155.02,63.777 154.831,63.64L154.825,63.666Z" style="fill:rgb(242,242,242);fill-rule:nonzero;"/>
            <path d="M159.668,63.782L112.872,35.254C112.625,35.111 112.345,35.036 112.06,35.036C111.171,35.036 110.439,35.768 110.439,36.657C110.439,36.676 110.439,36.695 110.44,36.714L110.44,52.965C110.436,53.563 110.747,54.12 111.257,54.431L158.06,82.361C158.305,82.502 158.582,82.576 158.864,82.576C159.75,82.576 160.479,81.847 160.479,80.961C160.479,80.947 160.479,80.934 160.479,80.921L160.723,65.762C160.744,64.962 160.343,64.211 159.668,63.782Z" style="fill:rgb(104,225,253);fill-rule:nonzero;"/>
            <path d="M159.668,63.782L112.872,35.254C112.625,35.111 112.345,35.036 112.06,35.036C111.171,35.036 110.439,35.768 110.439,36.657C110.439,36.676 110.439,36.695 110.44,36.714L110.44,52.965C110.436,53.563 110.747,54.12 111.257,54.431L158.06,82.361C158.305,82.502 158.582,82.576 158.864,82.576C159.75,82.576 160.479,81.847 160.479,80.961C160.479,80.947 160.479,80.934 160.479,80.921L160.723,65.762C160.744,64.962 160.343,64.211 159.668,63.782Z" style="fill:rgb(104,225,253);fill-rule:nonzero;"/>
            <path d="M148.463,72.148C150.142,74.496 153.094,75.152 155.05,73.621C157.005,72.091 157.23,68.946 155.551,66.605C153.873,64.265 150.92,63.602 148.965,65.132C147.009,66.662 146.803,69.802 148.463,72.148Z" style="fill:white;fill-rule:nonzero;"/>
            <path d="M143.87,60.881L124.772,49.39C124.675,49.344 124.57,49.321 124.463,49.321C124.064,49.321 123.736,49.649 123.736,50.048C123.736,50.282 123.848,50.502 124.038,50.638L143.13,62.13C143.227,62.176 143.332,62.199 143.439,62.199C143.838,62.199 144.166,61.871 144.166,61.472C144.166,61.238 144.054,61.018 143.864,60.882L143.87,60.882L143.87,60.881ZM143.079,65.557L116.763,49.717C116.667,49.672 116.562,49.649 116.456,49.649C116.058,49.649 115.729,49.977 115.729,50.376C115.729,50.609 115.841,50.828 116.03,50.965L142.345,66.805C142.442,66.851 142.547,66.874 142.654,66.874C143.053,66.874 143.381,66.546 143.381,66.147C143.381,65.913 143.269,65.693 143.079,65.557Z" style="fill:rgb(242,242,242);fill-rule:nonzero;"/>
            <path d="M98.25,62.187C95.226,64.789 92.939,68.14 91.618,71.904C89.29,78.334 95.111,88.843 95.111,88.843L104.168,81.673" style="fill:rgb(255,143,111);fill-rule:nonzero;"/>
            <path d="M97.273,147.21L94.815,145.853L95.459,142.342C95.459,142.342 99.119,142.689 99.44,143.988" style="fill:rgb(0,59,148);fill-rule:nonzero;"/>
            <path d="M98.173,147.158C98.726,146.818 99.305,146.515 99.878,146.213C101.299,145.435 103.351,144.631 104.226,143.171C104.592,142.568 104.546,141.797 104.11,141.242C102.824,139.686 100.006,142.245 98.566,140.522C98.283,140.181 98.147,134.772 98.147,134.772L92.667,136.252C92.667,136.252 91.741,147.12 91.844,147.789C91.946,148.457 93.831,149.075 93.831,149.075C94.393,148.956 94.928,148.738 95.414,148.432C95.986,148.014 95.465,142.914 96.198,143.628C96.932,144.342 97.253,147.133 97.253,147.133C97.558,147.179 97.867,147.187 98.173,147.158Z" style="fill:rgb(244,123,86);fill-rule:nonzero;"/>
            <path d="M107.738,152.464L105.281,151.126L105.924,147.615C105.924,147.615 109.584,147.962 109.906,149.261" style="fill:rgb(0,59,148);fill-rule:nonzero;"/>
            <path d="M108.665,152.412C109.218,152.072 109.797,151.769 110.369,151.467C111.791,150.689 113.843,149.885 114.718,148.425C115.084,147.822 115.038,147.051 114.602,146.496C113.315,144.94 110.498,147.499 109.057,145.776C108.774,145.435 108.639,140.026 108.639,140.026L103.159,141.506C103.159,141.506 102.226,152.412 102.329,153.056C102.431,153.699 104.316,154.342 104.316,154.342C104.878,154.223 105.413,154.005 105.899,153.699C106.471,153.281 105.95,148.181 106.683,148.895C107.417,149.609 107.738,152.4 107.738,152.4C108.045,152.442 108.357,152.446 108.665,152.412Z" style="fill:rgb(244,123,86);fill-rule:nonzero;"/>
            <path d="M89.882,117.133L88.267,138.721C88.267,138.721 90.84,142.271 99.467,140.297L99.55,125.744M99.846,121.41C99.659,123.268 99.846,143.77 99.846,143.77C99.846,143.77 102.232,148.232 112.621,143.77L112.473,126.348" style="fill:rgb(62,41,40);fill-rule:nonzero;"/>
            <path d="M89.078,124.264C89.785,124.754 90.03,122.239 90.769,122.67C93.46,124.233 96.317,125.492 99.286,126.425L99.35,126.425C99.43,126.386 99.517,126.366 99.606,126.366C99.838,126.366 100.048,126.503 100.142,126.715C101.976,127.262 103.842,127.691 105.732,128.001C108.156,128.387 110.163,126.592 112.652,126.471C112.652,116.94 112.698,89.814 108.639,84.026L96.629,79.988C96.571,80.978 90.801,87.666 90.943,95.821C91.103,105.011 89.907,113.679 89.701,116.554C89.669,117.043 89.103,123.744 89.078,124.264Z" style="fill:rgb(62,41,40);fill-rule:nonzero;"/>
            <path d="M109.745,73.068L108.639,84.001C108.639,84.001 99.679,84.361 95.819,81.698L95.819,72.425" style="fill:rgb(255,143,111);fill-rule:nonzero;"/>
            <path d="M121.137,65.872L120.224,67.119C120.711,66.104 121.14,65.063 121.51,64C121.768,63.274 120.603,62.984 120.346,63.711L120.211,64.084C120.323,63.698 120.428,63.31 120.526,62.92C120.54,62.868 120.548,62.814 120.548,62.76C120.548,62.43 120.277,62.16 119.948,62.16C119.667,62.16 119.423,62.356 119.362,62.63C119.11,63.64 118.807,64.636 118.455,65.615C118.652,64.746 118.794,63.865 118.88,62.978C118.957,62.213 117.754,62.245 117.683,62.978C117.583,63.988 117.403,64.988 117.143,65.968C117.143,65.623 117.11,65.278 117.046,64.939C117.028,64.767 116.937,64.61 116.796,64.509C116.763,64.374 116.725,64.241 116.68,64.109C116.597,63.864 116.366,63.698 116.107,63.698C115.78,63.698 115.509,63.962 115.502,64.289L115.425,68.791C115.207,69.258 114.924,69.691 114.583,70.078C115.161,70.478 115.72,70.908 116.255,71.364C116.733,71.767 117.188,72.197 117.619,72.65C118.005,72.17 118.376,71.681 118.732,71.184C118.776,71.146 118.815,71.103 118.847,71.055C119.919,69.47 121.025,67.909 122.167,66.373C122.643,65.846 121.594,65.261 121.137,65.872Z" style="fill:rgb(255,181,169);fill-rule:nonzero;"/>
            <path d="M104.059,63.1C104.059,63.1 108.292,64.238 110.009,66.959C111.085,68.842 112.032,70.794 112.846,72.804L115.972,67.949C115.972,67.949 119.767,69.113 121.272,70.978C121.272,70.978 116.77,80.818 112.846,81.66C108.922,82.502 104.754,75.885 104.754,75.885C104.754,75.885 103.892,78.65 104.059,75.698" style="fill:rgb(255,143,111);fill-rule:nonzero;"/>
            <path d="M106.748,73.615C105.518,72.614 104.589,71.292 104.065,69.795C103.557,68.065 104.194,66.547 104.785,64.939C105.426,63.345 105.8,61.657 105.892,59.942C105.944,58.258 105.751,56.572 105.635,54.894C105.619,54.822 105.619,54.748 105.635,54.676C105.069,52.778 103.911,51.171 101.627,50.978C95.716,50.476 95.381,57.023 95.427,59.685C95.471,62.348 95.755,64.148 93.793,65.261C91.831,66.373 90.415,69.293 92.287,71.653C94.159,74.013 92.48,73.152 91.232,75.248C89.985,77.345 90.306,79.962 92.866,80.908C95.426,81.853 107.326,80.078 108.42,78.978C108.808,78.535 109.009,77.958 108.98,77.37C108.713,75.891 107.92,74.556 106.748,73.615Z" style="fill:rgb(0,127,104);fill-rule:nonzero;"/>
            <path d="M112.563,19.62C113.565,21.062 114.144,22.755 114.235,24.508C114.347,25.31 114.151,26.126 113.688,26.791C113.283,27.236 112.624,27.35 112.093,27.068C111.768,26.938 111.474,26.74 111.231,26.488C111.013,26.284 110.826,26.048 110.678,25.788L110.524,25.486C110.482,25.565 110.43,25.638 110.369,25.704C110.216,25.824 110.034,25.901 109.842,25.929C109.52,25.989 109.188,25.949 108.89,25.814C108.179,25.506 107.587,24.976 107.204,24.302C106.743,23.571 106.485,22.729 106.458,21.865C106.363,21.165 106.582,20.459 107.056,19.935C107.473,19.533 108.101,19.435 108.62,19.691C108.878,19.794 109.115,19.942 109.32,20.129C109.496,20.278 109.652,20.449 109.784,20.637L109.9,20.843L109.9,20.27L111.186,20.772L111.315,24.386C111.324,24.645 111.404,24.896 111.546,25.113C111.667,25.322 111.852,25.486 112.074,25.583C112.696,25.827 112.983,25.291 112.936,23.974C112.871,22.671 112.441,21.411 111.694,20.341C111.023,19.252 110.025,18.401 108.844,17.911C107.969,17.466 106.905,17.602 106.169,18.251C105.391,19.032 105.009,20.126 105.133,21.222C105.207,22.601 105.651,23.934 106.42,25.081C107.032,26.213 107.996,27.117 109.166,27.653C109.574,27.823 110.011,27.908 110.453,27.903C110.74,27.923 111.028,27.87 111.289,27.749L111.546,27.608L112.325,29.055L112.196,29.145C112.074,29.213 111.947,29.274 111.816,29.325C111.611,29.414 111.395,29.475 111.173,29.505C110.889,29.543 110.602,29.543 110.318,29.505C109.945,29.46 109.58,29.367 109.231,29.228C108.241,28.802 107.36,28.156 106.658,27.338C105.826,26.418 105.152,25.366 104.664,24.225C104.175,23.136 103.896,21.964 103.84,20.772C103.771,19.77 103.975,18.767 104.432,17.872C104.811,17.121 105.466,16.545 106.259,16.264C107.09,15.99 107.994,16.036 108.793,16.392C110.354,17.051 111.672,18.18 112.563,19.621L112.563,19.62ZM109.726,24.193C109.937,23.923 110.032,23.581 109.99,23.241C109.98,22.822 109.862,22.412 109.649,22.051C109.474,21.736 109.2,21.487 108.87,21.344C108.611,21.211 108.296,21.252 108.08,21.447C107.855,21.702 107.751,22.043 107.796,22.38C107.811,22.804 107.937,23.216 108.163,23.576C108.348,23.902 108.635,24.16 108.98,24.309C109.227,24.436 109.528,24.389 109.726,24.193M188.512,89.255C189.515,90.695 190.095,92.389 190.184,94.142C190.296,94.944 190.101,95.76 189.638,96.425C189.232,96.868 188.573,96.983 188.042,96.702C187.718,96.57 187.424,96.373 187.18,96.122C186.963,95.916 186.777,95.681 186.627,95.422L186.473,95.12C186.429,95.198 186.377,95.271 186.318,95.338C186.166,95.458 185.984,95.537 185.791,95.563C185.472,95.627 185.141,95.589 184.845,95.454C184.133,95.145 183.542,94.612 183.16,93.936C182.694,93.204 182.434,92.36 182.407,91.493C182.308,90.793 182.527,90.085 183.006,89.563C183.42,89.163 184.045,89.065 184.562,89.319C184.82,89.421 185.058,89.569 185.263,89.756C185.439,89.908 185.594,90.081 185.727,90.271L185.849,90.476L185.849,89.904L187.135,90.399L187.264,94.013C187.275,94.272 187.355,94.523 187.495,94.74C187.616,94.95 187.801,95.114 188.023,95.21C188.666,95.454 188.93,94.92 188.891,93.602C188.826,92.297 188.396,91.035 187.65,89.962C186.979,88.877 185.985,88.029 184.807,87.538C183.932,87.093 182.869,87.226 182.131,87.872C181.357,88.662 180.985,89.764 181.121,90.862C181.193,92.241 181.638,93.575 182.407,94.721C183.043,95.827 184.018,96.7 185.187,97.21C185.594,97.38 186.031,97.467 186.473,97.467C186.76,97.484 187.047,97.431 187.309,97.312L187.566,97.171L188.345,98.618L188.215,98.708C188.094,98.777 187.967,98.837 187.836,98.888C187.63,98.973 187.414,99.034 187.193,99.068C186.907,99.106 186.617,99.106 186.331,99.068C185.96,99.021 185.597,98.926 185.251,98.785C184.261,98.361 183.381,97.717 182.678,96.901C181.845,95.979 181.171,94.924 180.683,93.781C180.195,92.692 179.915,91.521 179.86,90.329C179.79,89.329 179.995,88.328 180.452,87.435C180.832,86.683 181.486,86.105 182.279,85.82C183.113,85.55 184.017,85.596 184.819,85.95C186.362,86.644 187.652,87.799 188.512,89.255ZM185.675,93.827C185.888,93.558 185.985,93.216 185.945,92.875C185.934,92.455 185.814,92.045 185.598,91.685C185.427,91.37 185.155,91.121 184.826,90.978C184.568,90.843 184.252,90.882 184.035,91.075C183.807,91.328 183.7,91.669 183.745,92.007C183.76,92.429 183.887,92.84 184.112,93.197C184.297,93.525 184.584,93.785 184.929,93.937C185.175,94.065 185.477,94.02 185.675,93.827" style="fill:rgb(244,123,86);fill-rule:nonzero;"/>
            <path d="M60.324,116.676L38.55,104.29L16.782,116.702C16.782,116.702 28.895,124.264 39.733,130.618C46.616,125.756 52.733,120.194 60.324,116.676Z" style="fill:url(#_Linear5);fill-rule:nonzero;"/>
        </g>
        <g transform="matrix(1,0,0,1,50,68)">
            <path id="g" d="M0,13.878L0,40.813L20.984,52.83L44.678,38.817L44.678,11.883"/>
            <path id="g1" serif:id="g" d="M0,13.878L0,40.813L20.984,52.83L44.678,38.817L44.678,11.883" style="fill:rgb(255,146,113);"/>
        </g>
        <path d="M70.984,93.896L70.984,120.831L94.678,106.818L94.678,79.883L70.984,93.896Z" style="fill:rgb(223,92,52);fill-rule:nonzero;"/>
        <path d="M50,81.878L74.347,68L94.677,79.883L70.984,93.896L50,81.878Z" style="fill:rgb(244,123,86);fill-rule:nonzero;"/>
        <path d="M71.541,74.182C74.01,74.015 76.475,74.559 78.645,75.747C79.888,76.478 80.567,77.241 80.663,78.037C80.759,78.832 80.349,79.524 79.382,80.107C78.923,80.39 78.418,80.59 77.889,80.697C77.455,80.8 77.009,80.846 76.563,80.832L76.076,80.794C76.122,80.903 76.152,81.017 76.166,81.134C76.151,81.411 76.062,81.679 75.91,81.91C75.656,82.34 75.294,82.696 74.86,82.942C73.848,83.543 72.687,83.85 71.51,83.827C70.292,83.86 69.088,83.556 68.031,82.949C67.032,82.359 66.52,81.666 66.481,80.871C66.489,80.013 66.987,79.232 67.762,78.864C68.127,78.636 68.525,78.465 68.941,78.357C69.273,78.261 69.614,78.203 69.959,78.184L70.312,78.184L69.671,77.799L71.471,76.677L75.641,79.133C76.288,79.481 77.069,79.481 77.716,79.133C78.6,78.582 78.284,77.857 76.768,76.959C75.157,76.072 73.325,75.664 71.49,75.785C69.545,75.809 67.642,76.356 65.981,77.369C64.47,78.314 63.721,79.441 63.733,80.749C63.733,82.032 64.533,83.173 66.09,84.09C67.79,85.04 69.719,85.5 71.663,85.418C73.599,85.45 75.506,84.944 77.172,83.956C77.748,83.614 78.265,83.181 78.702,82.673C78.995,82.363 79.214,81.99 79.343,81.583L79.433,81.179L81.809,81.313C81.813,81.386 81.813,81.459 81.809,81.532C81.766,81.728 81.708,81.921 81.636,82.109C81.533,82.409 81.396,82.699 81.226,82.968C80.982,83.332 80.699,83.668 80.381,83.968C79.961,84.373 79.501,84.73 79.004,85.033C77.574,85.891 75.99,86.462 74.341,86.713C72.544,87.027 70.709,87.059 68.902,86.809C67.259,86.616 65.672,86.097 64.232,85.283C63.07,84.667 62.139,83.69 61.581,82.5C61.12,81.45 61.12,80.254 61.581,79.204C62.134,77.991 63.056,76.984 64.214,76.324C66.421,74.968 68.951,74.228 71.541,74.182ZM73.873,80.813C73.788,80.368 73.488,79.994 73.073,79.813C72.568,79.516 71.993,79.359 71.407,79.358C70.863,79.337 70.324,79.475 69.857,79.755C69.473,79.942 69.226,80.328 69.217,80.755C69.275,81.2 69.562,81.582 69.972,81.762C70.488,82.057 71.075,82.206 71.669,82.192C72.24,82.206 72.804,82.06 73.296,81.769C73.669,81.599 73.906,81.223 73.899,80.813" style="fill:rgb(62,41,40);fill-rule:nonzero;"/>
    </g>
    <g id="Artboard1" transform="matrix(6.48791,0,0,4.52531,664.643,14.4595)">
        <rect x="-102.443" y="-3.195" width="36.638" height="39.876" style="fill:none;"/>
    </g>
    <defs>
        <linearGradient id="_Linear1" x1="0" y1="0" x2="1" y2="0" gradientUnits="userSpaceOnUse" gradientTransform="matrix(-10.7934,6.67421,-6.67421,-10.7934,134.703,102.273)"><stop offset="0" style="stop-color:rgb(120,180,106);stop-opacity:0.25"/><stop offset="0.03" style="stop-color:rgb(127,53,0);stop-opacity:0.25"/><stop offset="1" style="stop-color:white;stop-opacity:0.25"/></linearGradient>
        <linearGradient id="_Linear2" x1="0" y1="0" x2="1" y2="0" gradientUnits="userSpaceOnUse" gradientTransform="matrix(-22.7904,8.69571,-8.69571,-22.7904,108.812,143.62)"><stop offset="0" style="stop-color:rgb(120,180,106);stop-opacity:0.25"/><stop offset="0.03" style="stop-color:rgb(127,53,0);stop-opacity:0.25"/><stop offset="1" style="stop-color:white;stop-opacity:0.25"/></linearGradient>
        <linearGradient id="_Linear3" x1="0" y1="0" x2="1" y2="0" gradientUnits="userSpaceOnUse" gradientTransform="matrix(-15.4318,8.02438,-8.02438,-15.4318,76.9073,76.0879)"><stop offset="0" style="stop-color:rgb(120,180,106);stop-opacity:0.46"/><stop offset="0.03" style="stop-color:rgb(127,53,0);stop-opacity:0.46"/><stop offset="1" style="stop-color:white;stop-opacity:0.46"/></linearGradient>
        <linearGradient id="_Linear4" x1="0" y1="0" x2="1" y2="0" gradientUnits="userSpaceOnUse" gradientTransform="matrix(-8.76754,-1.83607,1.83607,-8.76754,179.648,76.2239)"><stop offset="0" style="stop-color:white;stop-opacity:0"/><stop offset="0.99" style="stop-color:rgb(220,132,30);stop-opacity:0.32"/><stop offset="1" style="stop-color:rgb(220,132,30);stop-opacity:0.32"/></linearGradient>
        <linearGradient id="_Linear5" x1="0" y1="0" x2="1" y2="0" gradientUnits="userSpaceOnUse" gradientTransform="matrix(-22.7838,9.13213,-9.13213,-22.7838,52.5661,111.557)"><stop offset="0" style="stop-color:rgb(120,180,106);stop-opacity:0.25"/><stop offset="0.03" style="stop-color:rgb(127,53,0);stop-opacity:0.25"/><stop offset="1" style="stop-color:white;stop-opacity:0.25"/></linearGradient>
    </defs>
</svg>
